<svg xmlns="http://www.w3.org/2000/svg" xmlns:xlink="http://www.w3.org/1999/xlink" width="307" zoomAndPan="magnify" viewBox="0 0 230.25 47.25" height="63" preserveAspectRatio="xMidYMid meet" version="1.0"><defs><g/><clipPath id="c2805400fb"><path d="M 1.429688 3.960938 L 40.558594 3.960938 L 40.558594 39.398438 L 1.429688 39.398438 Z M 1.429688 3.960938 " clip-rule="nonzero"/></clipPath></defs><g clip-path="url(#c2805400fb)"><path fill="#14b7dc" d="M 20.011719 26.921875 L 20.925781 25.875 C 21.359375 26.40625 21.960938 26.75 22.675781 26.84375 L 22.675781 32.015625 L 17.6875 34.890625 L 12.71875 37.796875 L 7.746094 34.90625 L 2.777344 32.015625 L 2.777344 20.421875 L 5.515625 18.8125 L 5.515625 17.25 L 1.429688 19.640625 L 1.429688 32.796875 L 12.71875 39.375 L 24.003906 32.796875 L 24.003906 26.65625 C 24.980469 26.25 25.648438 25.28125 25.648438 24.15625 C 25.648438 22.671875 24.4375 21.453125 22.96875 21.453125 C 22.101562 21.453125 21.328125 21.859375 20.832031 22.5 L 19.902344 21.421875 C 20.566406 20.96875 20.988281 20.234375 21.0625 19.40625 L 24.316406 17.5 L 29.285156 14.609375 L 34.257812 17.5 L 39.226562 20.390625 L 39.226562 31.984375 L 34.242188 34.890625 L 29.269531 37.78125 L 24.300781 34.890625 L 23.527344 34.453125 L 22.179688 35.234375 L 29.269531 39.359375 L 40.558594 32.78125 L 40.558594 19.625 L 29.269531 13.046875 L 20.769531 18 C 20.335938 17.109375 19.421875 16.484375 18.371094 16.484375 C 16.898438 16.484375 15.691406 17.703125 15.691406 19.1875 C 15.691406 20.625 16.820312 21.828125 18.261719 21.890625 L 18.261719 26.375 C 17.300781 26.421875 16.496094 26.953125 16.03125 27.75 L 12.6875 25.796875 L 7.714844 22.90625 L 7.714844 11.3125 L 12.6875 8.421875 L 17.65625 5.53125 L 22.628906 8.421875 L 27.597656 11.3125 L 27.597656 12.984375 L 28.945312 12.203125 L 28.945312 10.53125 L 17.671875 3.988281 L 6.382812 10.5625 L 6.382812 23.71875 L 15.691406 29.15625 C 15.707031 30.640625 16.898438 31.84375 18.371094 31.84375 C 19.839844 31.84375 21.046875 30.625 21.046875 29.140625 C 21.078125 28.203125 20.644531 27.421875 20.011719 26.921875 Z M 20.785156 25.671875 L 19.824219 26.765625 C 19.4375 26.515625 19.003906 26.375 18.523438 26.359375 L 18.523438 21.890625 C 18.957031 21.875 19.359375 21.75 19.730469 21.546875 L 20.738281 22.6875 C 20.460938 23.09375 20.335938 23.609375 20.335938 24.125 C 20.304688 24.71875 20.492188 25.25 20.785156 25.671875 Z M 20.785156 25.671875 " fill-opacity="1" fill-rule="evenodd"/></g><g fill="#ffffff" fill-opacity="1"><g transform="translate(51.823362, 33.249293)"><g><path d="M 22.359375 0 L 19.03125 0 L 14.453125 -15.03125 L 9.828125 0 L 6.46875 0 L 0.078125 -19.265625 L 3.578125 -19.265625 L 8.265625 -3.609375 L 12.90625 -19.25 L 16.109375 -19.265625 L 20.78125 -3.609375 L 25.4375 -19.265625 L 28.796875 -19.265625 Z M 22.359375 0 "/></g></g></g><g fill="#ffffff" fill-opacity="1"><g transform="translate(80.900963, 33.249293)"><g><path d="M 1.75 -2.875 C 2.082031 -3.21875 2.5 -3.390625 3 -3.390625 C 3.5 -3.390625 3.910156 -3.21875 4.234375 -2.875 C 4.566406 -2.539062 4.734375 -2.113281 4.734375 -1.59375 C 4.734375 -1.0625 4.566406 -0.617188 4.234375 -0.265625 C 3.910156 0.078125 3.5 0.25 3 0.25 C 2.5 0.25 2.082031 0.078125 1.75 -0.265625 C 1.425781 -0.617188 1.265625 -1.0625 1.265625 -1.59375 C 1.265625 -2.113281 1.425781 -2.539062 1.75 -2.875 Z M 1.75 -2.875 "/></g></g></g><g fill="#ffffff" fill-opacity="1"><g transform="translate(87.454521, 33.249293)"><g><path d="M 14.984375 -4.34375 L 5.265625 -4.34375 L 3.40625 0 L 0.03125 0 L 8.53125 -19.265625 L 11.859375 -19.265625 L 20.296875 0 L 16.828125 0 Z M 13.734375 -7.234375 L 10.109375 -15.796875 L 6.46875 -7.234375 Z M 13.734375 -7.234375 "/></g></g></g><g fill="#ffffff" fill-opacity="1"><g transform="translate(108.326551, 33.249293)"><g><path d="M 1.75 -2.875 C 2.082031 -3.21875 2.5 -3.390625 3 -3.390625 C 3.5 -3.390625 3.910156 -3.21875 4.234375 -2.875 C 4.566406 -2.539062 4.734375 -2.113281 4.734375 -1.59375 C 4.734375 -1.0625 4.566406 -0.617188 4.234375 -0.265625 C 3.910156 0.078125 3.5 0.25 3 0.25 C 2.5 0.25 2.082031 0.078125 1.75 -0.265625 C 1.425781 -0.617188 1.265625 -1.0625 1.265625 -1.59375 C 1.265625 -2.113281 1.425781 -2.539062 1.75 -2.875 Z M 1.75 -2.875 "/></g></g></g><g fill="#ffffff" fill-opacity="1"><g transform="translate(114.88011, 33.249293)"><g/></g></g><g fill="#ffffff" fill-opacity="1"><g transform="translate(122.535096, 33.249293)"><g><path d="M 8.859375 -19.40625 C 11.359375 -19.40625 13.609375 -18.742188 15.609375 -17.421875 L 14.265625 -14.5625 C 12.296875 -15.757812 10.414062 -16.359375 8.625 -16.359375 C 7.644531 -16.359375 6.875 -16.179688 6.3125 -15.828125 C 5.757812 -15.484375 5.484375 -14.988281 5.484375 -14.34375 C 5.484375 -13.695312 5.738281 -13.148438 6.25 -12.703125 C 6.757812 -12.253906 7.398438 -11.921875 8.171875 -11.703125 C 8.941406 -11.492188 9.773438 -11.226562 10.671875 -10.90625 C 11.578125 -10.59375 12.414062 -10.253906 13.1875 -9.890625 C 13.957031 -9.535156 14.59375 -8.976562 15.09375 -8.21875 C 15.601562 -7.457031 15.859375 -6.535156 15.859375 -5.453125 C 15.859375 -3.765625 15.179688 -2.414062 13.828125 -1.40625 C 12.484375 -0.394531 10.738281 0.109375 8.59375 0.109375 C 7.125 0.109375 5.695312 -0.164062 4.3125 -0.71875 C 2.9375 -1.269531 1.738281 -2.015625 0.71875 -2.953125 L 2.125 -5.75 C 3.09375 -4.851562 4.160156 -4.160156 5.328125 -3.671875 C 6.492188 -3.191406 7.597656 -2.953125 8.640625 -2.953125 C 9.785156 -2.953125 10.671875 -3.15625 11.296875 -3.5625 C 11.929688 -3.976562 12.25 -4.550781 12.25 -5.28125 C 12.25 -5.945312 11.988281 -6.503906 11.46875 -6.953125 C 10.957031 -7.398438 10.316406 -7.726562 9.546875 -7.9375 C 8.773438 -8.15625 7.941406 -8.414062 7.046875 -8.71875 C 6.148438 -9.019531 5.316406 -9.335938 4.546875 -9.671875 C 3.773438 -10.015625 3.128906 -10.5625 2.609375 -11.3125 C 2.097656 -12.0625 1.84375 -12.972656 1.84375 -14.046875 C 1.84375 -15.671875 2.484375 -16.96875 3.765625 -17.9375 C 5.054688 -18.914062 6.753906 -19.40625 8.859375 -19.40625 Z M 8.859375 -19.40625 "/></g></g></g><g fill="#ffffff" fill-opacity="1"><g transform="translate(140.213003, 33.249293)"><g><path d="M 15.6875 -16.359375 L 9.578125 -16.359375 L 9.578125 0 L 6.328125 0 L 6.328125 -16.359375 L 0.25 -16.359375 L 0.25 -19.265625 L 15.6875 -19.265625 Z M 15.6875 -16.359375 "/></g></g></g><g fill="#ffffff" fill-opacity="1"><g transform="translate(156.706879, 33.249293)"><g><path d="M 3.875 -16.5625 C 5.84375 -18.425781 8.265625 -19.359375 11.140625 -19.359375 C 14.023438 -19.359375 16.445312 -18.425781 18.40625 -16.5625 C 20.375 -14.695312 21.359375 -12.382812 21.359375 -9.625 C 21.359375 -6.875 20.375 -4.554688 18.40625 -2.671875 C 16.445312 -0.796875 14.023438 0.140625 11.140625 0.140625 C 8.265625 0.140625 5.84375 -0.796875 3.875 -2.671875 C 1.914062 -4.554688 0.9375 -6.875 0.9375 -9.625 C 0.9375 -12.382812 1.914062 -14.695312 3.875 -16.5625 Z M 11.171875 -16.4375 C 9.265625 -16.4375 7.628906 -15.78125 6.265625 -14.46875 C 4.910156 -13.15625 4.234375 -11.539062 4.234375 -9.625 C 4.234375 -7.71875 4.914062 -6.097656 6.28125 -4.765625 C 7.65625 -3.441406 9.285156 -2.78125 11.171875 -2.78125 C 13.066406 -2.78125 14.679688 -3.441406 16.015625 -4.765625 C 17.359375 -6.097656 18.03125 -7.71875 18.03125 -9.625 C 18.03125 -11.539062 17.359375 -13.15625 16.015625 -14.46875 C 14.679688 -15.78125 13.066406 -16.4375 11.171875 -16.4375 Z M 11.171875 -16.4375 "/></g></g></g><g fill="#ffffff" fill-opacity="1"><g transform="translate(179.561468, 33.249293)"><g><path d="M 14.75 0 L 11.234375 -5.84375 C 11.046875 -5.820312 10.753906 -5.8125 10.359375 -5.8125 L 5.78125 -5.8125 L 5.78125 0 L 2.53125 0 L 2.53125 -19.265625 L 10.359375 -19.265625 C 12.816406 -19.265625 14.722656 -18.691406 16.078125 -17.546875 C 17.429688 -16.398438 18.109375 -14.78125 18.109375 -12.6875 C 18.109375 -11.144531 17.765625 -9.84375 17.078125 -8.78125 C 16.390625 -7.71875 15.40625 -6.9375 14.125 -6.4375 L 18.453125 0 Z M 5.78125 -8.734375 L 10.359375 -8.734375 C 13.472656 -8.734375 15.03125 -10.023438 15.03125 -12.609375 C 15.03125 -15.109375 13.472656 -16.359375 10.359375 -16.359375 L 5.78125 -16.359375 Z M 5.78125 -8.734375 "/></g></g></g><g fill="#ffffff" fill-opacity="1"><g transform="translate(200.02045, 33.249293)"><g><path d="M 16.296875 -16.359375 L 5.78125 -16.359375 L 5.78125 -11.15625 L 15.203125 -11.15625 L 15.203125 -8.234375 L 5.78125 -8.234375 L 5.78125 -2.921875 L 16.625 -2.921875 L 16.625 0 L 2.53125 0 L 2.53125 -19.265625 L 16.296875 -19.265625 Z M 16.296875 -16.359375 "/></g></g></g></svg>