<svg width="307" height="63" viewBox="0 0 307 63" fill="none" xmlns="http://www.w3.org/2000/svg">
<mask id="mask0_27_2" style="mask-type:luminance" maskUnits="userSpaceOnUse" x="1" y="5" width="54" height="48">
<path d="M1.90625 5.28125H54.0781V52.5313H1.90625V5.28125Z" fill="white"/>
</mask>
<g mask="url(#mask0_27_2)">
<path fill-rule="evenodd" clip-rule="evenodd" d="M26.6823 35.8958L27.901 34.5C28.4792 35.2083 29.2813 35.6666 30.2344 35.7916V42.6875L23.5833 46.5208L16.9583 50.3958L10.3281 46.5416L3.70312 42.6875V27.2291L7.35417 25.0833V23L1.90625 26.1875V43.7291L16.9583 52.5L32.0052 43.7291V35.5416C33.3073 35 34.1979 33.7083 34.1979 32.2083C34.1979 30.2291 32.5833 28.6041 30.625 28.6041C29.4688 28.6041 28.4375 29.1458 27.776 30L26.5365 28.5625C27.4219 27.9583 27.9844 26.9791 28.0833 25.875L32.4219 23.3333L39.0469 19.4791L45.6771 23.3333L52.3021 27.1875V42.6458L45.6563 46.5208L39.026 50.375L32.401 46.5208L31.3698 45.9375L29.5729 46.9791L39.026 52.4791L54.0781 43.7083V26.1666L39.026 17.3958L27.6927 24C27.1146 22.8125 25.8958 21.9791 24.4948 21.9791C22.5313 21.9791 20.9219 23.6041 20.9219 25.5833C20.9219 27.5 22.4271 29.1041 24.349 29.1875V35.1666C23.0677 35.2291 21.9948 35.9375 21.375 37L16.9167 34.3958L10.2865 30.5416V15.0833L16.9167 11.2291L23.5417 7.37498L30.1719 11.2291L36.7969 15.0833V17.3125L38.5938 16.2708V14.0416L23.5625 5.31769L8.51042 14.0833V31.625L20.9219 38.875C20.9427 40.8541 22.5313 42.4583 24.4948 42.4583C26.4531 42.4583 28.0625 40.8333 28.0625 38.8541C28.1042 37.6041 27.526 36.5625 26.6823 35.8958ZM27.7135 34.2291L26.4323 35.6875C25.9167 35.3541 25.3385 35.1666 24.6979 35.1458V29.1875C25.276 29.1666 25.8125 29 26.3073 28.7291L27.651 30.25C27.2813 30.7916 27.1146 31.4791 27.1146 32.1666C27.0729 32.9583 27.3229 33.6666 27.7135 34.2291Z" fill="#2967C4"/>
</g>
<path d="M98.9104 44.3324H94.4729L88.3687 24.2907L82.202 44.3324H77.7229L69.202 18.6449H73.8687L80.1187 39.5199L86.3062 18.6657L90.577 18.6449L96.8062 39.5199L103.015 18.6449H107.494L98.9104 44.3324Z" fill="#2D2D2D"/>
<path d="M110.201 40.4991C110.644 40.0408 111.201 39.8116 111.868 39.8116C112.535 39.8116 113.081 40.0408 113.514 40.4991C113.956 40.947 114.18 41.5147 114.18 42.2074C114.18 42.9158 113.956 43.5095 113.514 43.9783C113.081 44.4366 112.535 44.6658 111.868 44.6658C111.201 44.6658 110.644 44.4366 110.201 43.9783C109.769 43.5095 109.555 42.9158 109.555 42.2074C109.555 41.5147 109.769 40.947 110.201 40.4991Z" fill="#2D2D2D"/>
<path d="M136.585 38.5407H123.627L121.148 44.3324H116.648L127.981 18.6449H132.419L143.669 44.3324H139.044L136.585 38.5407ZM134.919 34.6866L130.085 23.2699L125.231 34.6866H134.919Z" fill="#2D2D2D"/>
<path d="M146.769 40.4991C147.211 40.0408 147.769 39.8116 148.435 39.8116C149.102 39.8116 149.649 40.0408 150.081 40.4991C150.524 40.947 150.748 41.5147 150.748 42.2074C150.748 42.9158 150.524 43.5095 150.081 43.9783C149.649 44.4366 149.102 44.6658 148.435 44.6658C147.769 44.6658 147.211 44.4366 146.769 43.9783C146.336 43.5095 146.123 42.9158 146.123 42.2074C146.123 41.5147 146.336 40.947 146.769 40.4991Z" fill="#2D2D2D"/>
<path d="M175.193 18.4574C178.526 18.4574 181.526 19.3428 184.193 21.1032L182.401 24.9157C179.776 23.322 177.266 22.5199 174.88 22.5199C173.573 22.5199 172.547 22.7595 171.797 23.2282C171.057 23.6866 170.693 24.348 170.693 25.2074C170.693 26.072 171.031 26.8011 171.714 27.3949C172.391 27.9939 173.245 28.4366 174.276 28.7282C175.302 29.0095 176.411 29.3636 177.609 29.7907C178.818 30.2074 179.932 30.6605 180.964 31.1449C181.99 31.6189 182.839 32.3636 183.505 33.3741C184.182 34.3897 184.526 35.6189 184.526 37.0616C184.526 39.3116 183.62 41.1136 181.818 42.4574C180.026 43.8064 177.698 44.4782 174.839 44.4782C172.88 44.4782 170.974 44.1136 169.13 43.3741C167.297 42.6397 165.698 41.6449 164.339 40.3949L166.214 36.6657C167.505 37.8636 168.927 38.7855 170.484 39.4366C172.036 40.0772 173.51 40.3949 174.901 40.3949C176.427 40.3949 177.609 40.1241 178.443 39.5824C179.286 39.0303 179.714 38.2647 179.714 37.2907C179.714 36.4053 179.365 35.6605 178.672 35.0616C177.99 34.4678 177.135 34.0303 176.109 33.7491C175.078 33.4574 173.969 33.1136 172.776 32.7074C171.578 32.3064 170.469 31.8845 169.443 31.4366C168.411 30.9782 167.552 30.2491 166.859 29.2491C166.177 28.2491 165.839 27.0355 165.839 25.6032C165.839 23.4366 166.693 21.7074 168.401 20.4157C170.12 19.1136 172.385 18.4574 175.193 18.4574Z" fill="#2D2D2D"/>
<path d="M207.867 22.5199H199.721V44.3324H195.388V22.5199H187.284V18.6449H207.867V22.5199Z" fill="#2D2D2D"/>
<path d="M214.109 22.2491C216.734 19.7647 219.963 18.5199 223.797 18.5199C227.64 18.5199 230.87 19.7647 233.484 22.2491C236.109 24.7386 237.422 27.822 237.422 31.4991C237.422 35.1657 236.109 38.2595 233.484 40.7699C230.87 43.2699 227.64 44.5199 223.797 44.5199C219.963 44.5199 216.734 43.2699 214.109 40.7699C211.495 38.2595 210.193 35.1657 210.193 31.4991C210.193 27.822 211.495 24.7386 214.109 22.2491ZM223.838 22.4157C221.297 22.4157 219.114 23.2907 217.297 25.0407C215.489 26.7907 214.588 28.947 214.588 31.4991C214.588 34.0407 215.495 36.2022 217.318 37.9782C219.151 39.7439 221.323 40.6241 223.838 40.6241C226.364 40.6241 228.515 39.7439 230.297 37.9782C232.088 36.2022 232.984 34.0407 232.984 31.4991C232.984 28.947 232.088 26.7907 230.297 25.0407C228.515 23.2907 226.364 22.4157 223.838 22.4157Z" fill="#2D2D2D"/>
<path d="M259.082 44.3324L254.394 36.5407C254.144 36.572 253.754 36.5824 253.228 36.5824H247.124V44.3324H242.79V18.6449H253.228C256.504 18.6449 259.045 19.4105 260.853 20.9366C262.655 22.4678 263.561 24.6241 263.561 27.4157C263.561 29.473 263.103 31.2074 262.186 32.6241C261.269 34.0407 259.957 35.0824 258.249 35.7491L264.019 44.3324H259.082ZM247.124 32.6866H253.228C257.379 32.6866 259.457 30.9678 259.457 27.5199C259.457 24.1866 257.379 22.5199 253.228 22.5199H247.124V32.6866Z" fill="#2D2D2D"/>
<path d="M288.423 22.5199H274.402V29.4574H286.965V33.3532H274.402V40.4366H288.861V44.3324H270.069V18.6449H288.423V22.5199Z" fill="#2D2D2D"/>
<path d="M255.136 56V54.608L255.1 54.38V52.052C255.1 51.516 254.948 51.104 254.644 50.816C254.348 50.528 253.904 50.384 253.312 50.384C252.904 50.384 252.516 50.452 252.148 50.588C251.78 50.724 251.468 50.904 251.212 51.128L250.828 50.492C251.148 50.22 251.532 50.012 251.98 49.868C252.428 49.716 252.9 49.64 253.396 49.64C254.212 49.64 254.84 49.844 255.28 50.252C255.728 50.652 255.952 51.264 255.952 52.088V56H255.136ZM252.964 56.06C252.492 56.06 252.08 55.984 251.728 55.832C251.384 55.672 251.12 55.456 250.936 55.184C250.752 54.904 250.66 54.584 250.66 54.224C250.66 53.896 250.736 53.6 250.888 53.336C251.048 53.064 251.304 52.848 251.656 52.688C252.016 52.52 252.496 52.436 253.096 52.436H255.268V53.072H253.12C252.512 53.072 252.088 53.18 251.848 53.396C251.616 53.612 251.5 53.88 251.5 54.2C251.5 54.56 251.64 54.848 251.92 55.064C252.2 55.28 252.592 55.388 253.096 55.388C253.576 55.388 253.988 55.28 254.332 55.064C254.684 54.84 254.94 54.52 255.1 54.104L255.292 54.692C255.132 55.108 254.852 55.44 254.452 55.688C254.06 55.936 253.564 56.06 252.964 56.06ZM260.774 56.06C260.174 56.06 259.634 55.924 259.154 55.652C258.682 55.38 258.31 55.004 258.038 54.524C257.766 54.036 257.63 53.476 257.63 52.844C257.63 52.204 257.766 51.644 258.038 51.164C258.31 50.684 258.682 50.312 259.154 50.048C259.634 49.776 260.174 49.64 260.774 49.64C261.326 49.64 261.818 49.764 262.25 50.012C262.69 50.26 263.038 50.624 263.294 51.104C263.558 51.576 263.69 52.156 263.69 52.844C263.69 53.524 263.562 54.104 263.306 54.584C263.05 55.064 262.702 55.432 262.262 55.688C261.83 55.936 261.334 56.06 260.774 56.06ZM260.834 55.304C261.282 55.304 261.682 55.204 262.034 55.004C262.394 54.796 262.674 54.508 262.874 54.14C263.082 53.764 263.186 53.332 263.186 52.844C263.186 52.348 263.082 51.916 262.874 51.548C262.674 51.18 262.394 50.896 262.034 50.696C261.682 50.488 261.282 50.384 260.834 50.384C260.394 50.384 259.998 50.488 259.646 50.696C259.294 50.896 259.014 51.18 258.806 51.548C258.598 51.916 258.494 52.348 258.494 52.844C258.494 53.332 258.598 53.764 258.806 54.14C259.014 54.508 259.294 54.796 259.646 55.004C259.998 55.204 260.394 55.304 260.834 55.304ZM263.21 56V54.104L263.294 52.832L263.174 51.56V47.096H264.026V56H263.21ZM274.271 49.64C274.783 49.64 275.227 49.74 275.603 49.94C275.987 50.132 276.283 50.428 276.491 50.828C276.707 51.228 276.815 51.732 276.815 52.34V56H275.963V52.424C275.963 51.76 275.803 51.26 275.483 50.924C275.171 50.58 274.727 50.408 274.151 50.408C273.719 50.408 273.343 50.5 273.023 50.684C272.711 50.86 272.467 51.12 272.291 51.464C272.123 51.8 272.039 52.208 272.039 52.688V56H271.187V52.424C271.187 51.76 271.027 51.26 270.707 50.924C270.387 50.58 269.939 50.408 269.363 50.408C268.939 50.408 268.567 50.5 268.247 50.684C267.927 50.86 267.679 51.12 267.503 51.464C267.335 51.8 267.251 52.208 267.251 52.688V56H266.399V49.7H267.215V51.404L267.083 51.104C267.275 50.648 267.583 50.292 268.007 50.036C268.439 49.772 268.947 49.64 269.531 49.64C270.147 49.64 270.671 49.796 271.103 50.108C271.535 50.412 271.815 50.872 271.943 51.488L271.607 51.356C271.791 50.844 272.115 50.432 272.579 50.12C273.051 49.8 273.615 49.64 274.271 49.64ZM279.126 56V49.7H279.978V56H279.126ZM279.558 48.308C279.382 48.308 279.234 48.248 279.114 48.128C278.994 48.008 278.934 47.864 278.934 47.696C278.934 47.528 278.994 47.388 279.114 47.276C279.234 47.156 279.382 47.096 279.558 47.096C279.734 47.096 279.882 47.152 280.002 47.264C280.122 47.376 280.182 47.516 280.182 47.684C280.182 47.86 280.122 48.008 280.002 48.128C279.89 48.248 279.742 48.308 279.558 48.308ZM285.564 49.64C286.076 49.64 286.524 49.74 286.908 49.94C287.3 50.132 287.604 50.428 287.82 50.828C288.044 51.228 288.156 51.732 288.156 52.34V56H287.304V52.424C287.304 51.76 287.136 51.26 286.8 50.924C286.472 50.58 286.008 50.408 285.408 50.408C284.96 50.408 284.568 50.5 284.232 50.684C283.904 50.86 283.648 51.12 283.464 51.464C283.288 51.8 283.2 52.208 283.2 52.688V56H282.348V49.7H283.164V51.428L283.032 51.104C283.232 50.648 283.552 50.292 283.992 50.036C284.432 49.772 284.956 49.64 285.564 49.64Z" fill="#2967C4"/>
</svg>
