<svg width="53" height="48" viewBox="0 0 53 48" fill="none" xmlns="http://www.w3.org/2000/svg">
<mask id="mask0_46_2" style="mask-type:luminance" maskUnits="userSpaceOnUse" x="0" y="0" width="53" height="48">
<path d="M0 0H52.1719V47.25H0V0Z" fill="white"/>
</mask>
<g mask="url(#mask0_46_2)">
<path fill-rule="evenodd" clip-rule="evenodd" d="M24.776 30.6146L25.9948 29.2187C26.5729 29.9271 27.375 30.3854 28.3281 30.5104V37.4062L21.6771 41.2396L15.0521 45.1146L8.42188 41.2604L1.79687 37.4062V21.9479L5.44792 19.8021V17.7187L0 20.9062V38.4479L15.0521 47.2187L30.099 38.4479V30.2604C31.401 29.7187 32.2917 28.4271 32.2917 26.9271C32.2917 24.9479 30.6771 23.3229 28.7188 23.3229C27.5625 23.3229 26.5313 23.8646 25.8698 24.7187L24.6302 23.2812C25.5156 22.6771 26.0781 21.6979 26.1771 20.5937L30.5156 18.0521L37.1406 14.1979L43.7708 18.0521L50.3958 21.9062V37.3646L43.75 41.2396L37.1198 45.0937L30.4948 41.2396L29.4635 40.6562L27.6667 41.6979L37.1198 47.1979L52.1719 38.4271V20.8854L37.1198 12.1146L25.7865 18.7187C25.2083 17.5312 23.9896 16.6979 22.5885 16.6979C20.625 16.6979 19.0156 18.3229 19.0156 20.3021C19.0156 22.2187 20.5208 23.8229 22.4427 23.9062V29.8854C21.1615 29.9479 20.0885 30.6562 19.4688 31.7187L15.0104 29.1146L8.38021 25.2604V9.80206L15.0104 5.9479L21.6354 2.09373L28.2656 5.9479L34.8906 9.80206V12.0312L36.6875 10.9896V8.7604L21.6563 0.036438L6.60417 8.80206V26.3437L19.0156 33.5937C19.0365 35.5729 20.625 37.1771 22.5885 37.1771C24.5469 37.1771 26.1563 35.5521 26.1563 33.5729C26.1979 32.3229 25.6198 31.2812 24.776 30.6146ZM25.8073 28.9479L24.526 30.4062C24.0104 30.0729 23.4323 29.8854 22.7917 29.8646V23.9062C23.3698 23.8854 23.9063 23.7187 24.401 23.4479L25.7448 24.9687C25.375 25.5104 25.2083 26.1979 25.2083 26.8854C25.1667 27.6771 25.4167 28.3854 25.8073 28.9479Z" fill="#14B7DC"/>
</g>
</svg>
